# xmcd CD database file generated by freedbAccess_ocx
#
# Track frame offsets:
#       150
#       16224
#       38488
#       52117
#       71118
#       90197
#
# Disc length: 1413 seconds
#
# Revision: 0
# Processed by: cddbd v1.5.1PL0 Copyright (c) Steve Scherf et al.
# Submitted via: CDnGo 2.00
#
DISCID=41058306
DTITLE=Goldentone - Demo CD number one
DYEAR=1998
DGENRE=Alt. Country
TTITLE0=Annalise
TTITLE1=Postcards
TTITLE2=Silver Studded Sky
TTITLE3=Goodbye
TTITLE4=Aeroplane
TTITLE5=Overdrive
EXTD=
EXTT0=
EXTT1=
EXTT2=
EXTT3=
EXTT4=
EXTT5=
PLAYORDER=
